<svg width="25" height="25" viewBox="0 0 25 25" fill="none" xmlns="http://www.w3.org/2000/svg">
<path id="Vector" d="M10.672 0.0304914C4.78715 0.0304914 0 4.81764 0 10.7025C0 16.5873 4.78715 21.3745 10.672 21.3745C12.471 21.3745 14.2395 20.9476 15.7335 20.1243C15.8532 20.2683 15.9859 20.401 16.1299 20.5207L19.1791 23.5698C19.4606 23.8866 19.804 24.1426 20.188 24.3219C20.572 24.5012 20.9887 24.6001 21.4123 24.6126C21.836 24.6251 22.2577 24.5508 22.6516 24.3944C23.0455 24.238 23.4033 24.0027 23.703 23.703C24.0027 23.4033 24.238 23.0455 24.3944 22.6516C24.5508 22.2577 24.6251 21.836 24.6126 21.4123C24.6001 20.9887 24.5012 20.572 24.3219 20.188C24.1426 19.804 23.8866 19.4606 23.5698 19.1791L20.5207 16.1299C20.3722 15.9814 20.2087 15.8485 20.0328 15.7336C20.8561 14.2395 21.3745 12.5015 21.3745 10.672C21.3745 4.78715 16.5873 0 10.7025 0L10.672 0.0304914ZM10.672 3.07963C14.9103 3.07963 18.2948 6.46417 18.2948 10.7025C18.2948 12.7149 17.563 14.5749 16.2824 15.947C16.2519 15.9775 16.2214 16.008 16.1909 16.0385C16.0469 16.1581 15.9142 16.2908 15.7945 16.4349C14.4529 17.6545 12.6234 18.3558 10.6415 18.3558C6.40319 18.3558 3.01865 14.9713 3.01865 10.733C3.01865 6.49466 6.40319 3.11012 10.6415 3.11012L10.672 3.07963Z" fill="white"/>
</svg>
